# Blender v2.93.5 OBJ File: 'Connector Room.blend'
# www.blender.org
mtllib Connector Room.mtl
o Plane
v -2.000000 0.000000 2.000000
v 2.000000 0.000000 2.000000
v -2.000000 0.000000 -2.000000
v 2.000000 0.000000 -2.000000
v -2.000000 0.000000 0.000000
v 2.000000 0.000000 0.000000
v 0.000000 0.000000 2.000000
v 0.000000 0.000000 -2.000000
v 1.000000 0.000000 2.000000
v 1.000000 0.000000 -2.000000
v -1.000000 0.000000 -2.000000
v -1.000000 0.000000 2.000000
v -1.500000 0.000000 -2.000000
v -1.500000 0.000000 2.000000
v 1.500000 0.000000 2.000000
v 1.500000 0.000000 -2.000000
v 0.500000 0.000000 -2.000000
v 0.500000 0.000000 2.000000
v -0.500000 0.000000 2.000000
v -0.500000 0.000000 -2.000000
v -2.000000 0.000000 1.000000
v 2.000000 0.000000 1.000000
v 2.000000 0.000000 -1.000000
v -2.000000 0.000000 -1.000000
v -2.000000 0.000000 -0.500000
v 2.000000 0.000000 -0.500000
v 2.000000 0.000000 0.500000
v -2.000000 0.000000 0.500000
v -2.000000 1.000000 2.000000
v 2.000000 1.000000 2.000000
v -2.000000 1.000000 -2.000000
v 2.000000 1.000000 -2.000000
v 1.000000 1.000000 2.000000
v 1.000000 1.000000 -2.000000
v -1.000000 1.000000 -2.000000
v -1.000000 1.000000 2.000000
v -1.500000 1.000000 -2.000000
v -1.500000 1.000000 2.000000
v 1.500000 1.000000 2.000000
v 1.500000 1.000000 -2.000000
v 0.500000 1.000000 -2.000000
v 0.500000 1.000000 2.000000
v -0.500000 1.000000 2.000000
v -0.500000 1.000000 -2.000000
v -2.000000 1.000000 1.000000
v 2.000000 1.000000 1.000000
v 2.000000 1.000000 -1.000000
v -2.000000 1.000000 -1.000000
v -2.000000 1.000000 -0.500000
v 2.000000 1.000000 -0.500000
v 2.000000 1.000000 0.500000
v -2.000000 1.000000 0.500000
v 2.000000 0.500000 -0.500000
v 2.000000 0.500000 -2.000000
v 0.500000 0.500000 -2.000000
v 2.000000 0.500000 2.000000
v 2.000000 0.500000 0.500000
v 0.500000 0.500000 2.000000
v 0.500000 0.750000 2.000000
v 2.000000 0.750000 2.000000
v 2.000000 0.750000 0.500000
v 2.000000 0.750000 -0.500000
v 2.000000 0.750000 -2.000000
v 0.500000 0.750000 -2.000000
v -2.000000 0.500000 -2.000000
v -2.000000 0.500000 -0.500000
v -0.500000 0.500000 -2.000000
v -2.000000 0.750000 -2.000000
v -0.500000 0.750000 -2.000000
v -2.000000 0.750000 -0.500000
v -0.500000 0.500000 2.000000
v -2.000000 0.500000 2.000000
v -2.000000 0.500000 0.500000
v -2.000000 0.750000 0.500000
v -0.500000 0.750000 2.000000
v -2.000000 0.750000 2.000000
v 2.000000 0.875000 -0.500000
v -2.000000 0.875000 -2.000000
v -0.500000 0.875000 -2.000000
v 0.500000 0.875000 2.000000
v -2.000000 0.875000 0.500000
v 2.000000 0.875000 2.000000
v 2.000000 0.875000 0.500000
v 2.000000 0.875000 -2.000000
v 0.500000 0.875000 -2.000000
v -2.000000 0.875000 -0.500000
v -0.500000 0.875000 2.000000
v -2.000000 0.875000 2.000000
v 2.000000 0.250000 2.000000
v 2.000000 0.250000 0.500000
v 0.500000 0.250000 2.000000
v 2.000000 0.250000 -2.000000
v 0.500000 0.250000 -2.000000
v 2.000000 0.250000 -0.500000
v -2.000000 0.250000 -0.500000
v -2.000000 0.250000 -2.000000
v -0.500000 0.250000 -2.000000
v -0.500000 0.250000 2.000000
v -2.000000 0.250000 2.000000
v -2.000000 0.250000 0.500000
v 2.000000 0.000000 -1.500000
v -2.000000 0.000000 -1.500000
v 2.000000 1.000000 -1.500000
v -2.000000 1.000000 -1.500000
v -2.000000 0.000000 1.500000
v 2.000000 0.000000 1.500000
v -2.000000 1.000000 1.500000
v 2.000000 1.000000 1.500000
vt 2.500000 2.000000
vt 2.500000 2.500000
vt 2.000000 2.500000
vt 1.500000 2.500000
vt 1.000000 2.500000
vt 0.500000 2.500000
vt 0.000000 2.500000
vt -0.500000 2.500000
vt -1.000000 2.500000
vt -1.500000 2.500000
vt -1.500000 2.000000
vt -1.500000 1.500000
vt -1.500000 1.000000
vt -1.500000 0.500000
vt -1.500000 0.000000
vt -1.500000 -0.500000
vt -1.500000 -1.000000
vt -1.500000 -1.500000
vt -1.000000 -1.500000
vt -0.500000 -1.500000
vt 0.000000 -1.500000
vt 0.500000 -1.500000
vt 1.000000 -1.500000
vt 1.500000 -1.500000
vt 2.000000 -1.500000
vt 2.500000 -1.500000
vt 2.500000 -1.000000
vt 2.500000 -0.500000
vt 2.500000 0.000000
vt 2.500000 0.500000
vt 2.500000 1.000000
vt 2.500000 1.500000
vt 0.999965 -0.499859
vt 1.499894 -0.499859
vt 1.999824 -0.499859
vt 2.499753 -0.499859
vt 2.499752 -0.249894
vt 2.499753 0.000070
vt 2.499753 0.500000
vt 2.499753 0.999929
vt 2.499753 1.499858
vt 1.999824 1.499858
vt 1.499894 1.499858
vt 0.999965 1.499858
vt 0.999965 0.999929
vt 0.999965 0.499999
vt 0.999965 0.000070
vt 0.999965 -0.249894
vt 0.000106 -0.249894
vt 0.000106 0.000071
vt 0.000106 0.500000
vt 0.000107 0.999929
vt 0.000107 1.499859
vt -0.499823 1.499859
vt -0.999752 1.499859
vt -1.499681 1.499859
vt -1.499681 0.999930
vt -1.499681 0.500000
vt -1.499682 0.000071
vt -1.499682 -0.249894
vt -1.499682 -0.499859
vt -0.999753 -0.499859
vt -0.499823 -0.499859
vt 0.000106 -0.499859
vt -0.499823 1.499859
vt -0.999752 1.499859
vt -1.499682 1.499859
vt -1.499682 1.249894
vt -1.499682 0.999930
vt -1.499682 0.500000
vt -1.499682 0.000070
vt -1.499681 -0.499859
vt -0.999752 -0.499859
vt -0.499822 -0.499859
vt 0.000107 -0.499859
vt 0.000107 0.000071
vt 0.000107 0.500000
vt 0.000107 0.999930
vt 0.000107 1.249894
vt 0.999965 1.249894
vt 0.999965 0.999930
vt 0.999965 0.500000
vt 0.999965 0.000071
vt 0.999965 -0.499858
vt 1.499894 -0.499858
vt 1.999823 -0.499858
vt 2.499753 -0.499858
vt 2.499753 0.000071
vt 2.499753 0.999930
vt 2.499753 1.249894
vt 2.499753 1.499859
vt 1.999823 1.499859
vt 1.499894 1.499859
vt 0.999965 1.499859
vt 0.000106 1.499859
vt -0.499823 -0.499858
vt 0.000106 -0.499858
vt 0.999965 -0.499859
vt 1.499894 -0.499859
vt 1.999823 -0.499858
vt 2.499753 -0.499859
vt 2.499753 -0.249894
vt 2.499753 0.000071
vt 2.499753 0.500000
vt 2.499753 0.999930
vt 2.499753 1.499859
vt 1.999823 1.499859
vt 1.499894 1.499859
vt 0.999965 1.499859
vt 0.999964 0.999930
vt 0.999965 0.500000
vt 0.999965 0.000071
vt 0.999965 -0.249894
vt 0.000106 -0.249894
vt 0.000106 0.000071
vt 0.000106 0.500000
vt 0.000106 0.999929
vt 0.000106 1.499859
vt -0.499823 1.499859
vt -0.999752 1.499858
vt -1.499681 1.499859
vt -1.499681 0.999930
vt -1.499681 0.500000
vt -1.499681 0.000071
vt -1.499682 -0.249893
vt -1.499682 -0.499858
vt -0.999753 -0.499858
vt -0.499823 1.499859
vt -0.999752 1.499859
vt -1.499682 1.499859
vt -1.499682 1.249894
vt -1.499682 0.999930
vt -1.499682 0.000070
vt -1.499681 -0.499859
vt -0.999752 -0.499859
vt -0.499822 -0.499859
vt 0.000107 -0.499859
vt 0.000107 0.000071
vt 0.000107 0.500000
vt 0.000107 0.999930
vt 0.000107 1.249894
vt 0.999965 1.249894
vt 0.999965 0.999930
vt 0.999965 0.500000
vt 0.999965 0.000071
vt 0.999965 -0.499858
vt 1.499894 -0.499858
vt 1.999823 -0.499858
vt 2.499753 -0.499858
vt 2.499753 0.000071
vt 2.499753 0.500000
vt 2.499753 0.999930
vt 2.499753 1.249894
vt 2.499753 1.499859
vt 1.999823 1.499859
vt 1.499894 1.499859
vt 0.999965 1.499859
vt 0.000106 1.499859
vn 0.0000 1.0000 0.0000
vn -1.0000 0.0000 0.0000
vn 0.0000 0.0000 1.0000
vn 0.0000 0.0000 -1.0000
vn 1.0000 0.0000 0.0000
usemtl Material.001
s off
f 101/1/1 4/2/1 16/3/1 10/4/1 17/5/1 8/6/1 20/7/1 11/8/1 13/9/1 3/10/1 102/11/1 24/12/1 25/13/1 5/14/1 28/15/1 21/16/1 105/17/1 1/18/1 14/19/1 12/20/1 19/21/1 7/22/1 18/23/1 9/24/1 15/25/1 2/26/1 106/27/1 22/28/1 27/29/1 6/30/1 26/31/1 23/32/1
usemtl Wall
f 50/33/2 47/34/2 103/35/2 32/36/2 84/37/2 63/38/2 54/39/2 92/40/2 4/41/2 101/42/2 23/43/2 26/44/2 94/45/2 53/46/2 62/47/2 77/48/2 83/49/2 61/50/2 57/51/2 90/52/2 27/53/2 22/54/2 106/55/2 2/56/2 89/57/2 56/58/2 60/59/2 82/60/2 30/61/2 108/62/2 46/63/2 51/64/2
f 35/65/3 37/66/3 31/67/3 78/68/3 68/69/3 65/70/3 96/71/3 3/72/3 13/73/3 11/74/3 20/75/3 97/76/3 67/77/3 69/78/3 79/79/3 85/80/3 64/81/3 55/82/3 93/83/3 17/84/3 10/85/3 16/86/3 4/87/3 92/88/3 54/39/3 63/89/3 84/90/3 32/91/3 40/92/3 34/93/3 41/94/3 44/95/3
f 36/96/4 43/97/4 42/98/4 33/99/4 39/100/4 30/101/4 82/102/4 60/103/4 56/104/4 89/105/4 2/106/4 15/107/4 9/108/4 18/109/4 91/110/4 58/111/4 59/112/4 80/113/4 87/114/4 75/115/4 71/116/4 98/117/4 19/118/4 12/119/4 14/120/4 1/121/4 99/122/4 72/123/4 76/124/4 88/125/4 29/126/4 38/127/4
f 45/128/5 107/129/5 29/130/5 88/131/5 76/132/5 72/123/5 99/133/5 1/134/5 105/135/5 21/136/5 28/137/5 100/138/5 73/139/5 74/140/5 81/141/5 86/142/5 70/143/5 66/144/5 95/145/5 25/146/5 24/147/5 102/148/5 3/149/5 96/150/5 65/151/5 68/152/5 78/153/5 31/154/5 104/155/5 48/156/5 49/157/5 52/158/5
